PathFileType	4	(X/Y/Z)	C:\Users\Basilio\Documents\Thesis Gigler\squatting_fais\c3dfiles\054\SLS_back_pre4\markers_experimental.trc
DataRate	CameraRate	NumFrames	NumMarkers	Units	OrigDataRate	OrigDataStartFrame	OrigNumFrames
200.000000	200.000000	4	61	mm	200.000000	767	1535
Frame#	Time	FHD			LBHD			RBHD			C7			T10			CLAV			LSHO			LUUPA			LMUPA			LDUPA			LLEP			LMEP			LRAD			LUL			LRFIN			RSHO			RUPA1			RMUPA			RDUPA			RLEP			RMEP			RRAD			RUL			RUFIN			LASI			RASI			USACR			LSACR			RSACR			LTHI1			LTHI2			LTHI3			LTHI4			LLFC			LMFC			LTIB1			LTIB2			LTIB3			LTIB4			LLMAL			LMMAL			LHEE			LMT1			LMT2			LMT5			RTHI			RTHI2			RTHI3			RTHI4			RLFC			RMFC			RTIB1			RTIB2			RTIB3			RTIB4			RLMAL			RMMAL			RHEE			RMT1			RMT2			RMT5			
		X1	Y1	Z1	X2	Y2	Z2	X3	Y3	Z3	X4	Y4	Z4	X5	Y5	Z5	X6	Y6	Z6	X7	Y7	Z7	X8	Y8	Z8	X9	Y9	Z9	X10	Y10	Z10	X11	Y11	Z11	X12	Y12	Z12	X13	Y13	Z13	X14	Y14	Z14	X15	Y15	Z15	X16	Y16	Z16	X17	Y17	Z17	X18	Y18	Z18	X19	Y19	Z19	X20	Y20	Z20	X21	Y21	Z21	X22	Y22	Z22	X23	Y23	Z23	X24	Y24	Z24	X25	Y25	Z25	X26	Y26	Z26	X27	Y27	Z27	X28	Y28	Z28	X29	Y29	Z29	X30	Y30	Z30	X31	Y31	Z31	X32	Y32	Z32	X33	Y33	Z33	X34	Y34	Z34	X35	Y35	Z35	X36	Y36	Z36	X37	Y37	Z37	X38	Y38	Z38	X39	Y39	Z39	X40	Y40	Z40	X41	Y41	Z41	X42	Y42	Z42	X43	Y43	Z43	X44	Y44	Z44	X45	Y45	Z45	X46	Y46	Z46	X47	Y47	Z47	X48	Y48	Z48	X49	Y49	Z49	X50	Y50	Z50	X51	Y51	Z51	X52	Y52	Z52	X53	Y53	Z53	X54	Y54	Z54	X55	Y55	Z55	X56	Y56	Z56	X57	Y57	Z57	X58	Y58	Z58	X59	Y59	Z59	X60	Y60	Z60	X61	Y61	Z61	

768	3.835	-59.14714431762697	1557.607788085938	-1088.188842773438	-223.0887298583985	1511.189208984375	-1157.788452148438	-240.1688385009766	1514.759155273438	-1018.303161621094	-286.6663513183594	1370.295776367188	-1072.5771484375	-426.3251953125001	1075.782958984375	-1059.313842773438	-164.6889038085938	1274.724243164063	-1075.9951171875	-209.7963104248047	1354.599609375	-1216.976806640625	-72.7976760864258	1225.180908203125	-1339.350708007813	-37.74605178833009	1256.481567382813	-1325.03125	-5.719544410705567	1211.75048828125	-1347.927368164063	53.43346405029298	1210.34375	-1344.335693359375	47.91733169555665	1146.48046875	-1298.43896484375	298.9909973144532	1228.639282226563	-1235.207641601563	322.3618164062501	1194.711547851563	-1300.999633789063	392.7686157226564	1247.875366210938	-1243.631958007813	-208.1915283203126	1362.669311523438	-939.6709594726565	-63.3278160095215	1241.987426757813	-810.3396606445315	-26.84018325805665	1269.072143554688	-824.6639404296877	3.178549528121949	1220.654052734375	-801.8977661132815	48.61074829101564	1211.339965820313	-805.681823730469	38.6961784362793	1153.949096679688	-855.8820800781252	293.3536071777344	1265.665893554688	-948.3724365234377	308.4645080566407	1234.391357421875	-876.622009277344	368.6627502441407	1299.460205078125	-945.4868164062502	-302.3307495117188	859.0346679687502	-1174.4150390625	-320.9515686035157	851.644470214844	-924.8865356445315	-460.6606750488282	997.8206176757815	-1057.304931640625	-477.3676757812501	971.1626586914065	-1087.4716796875	-477.9710388183595	968.2080078125002	-1029.665893554688	-313.3566589355469	665.8779296875001	-1256.180541992188	-239.6971588134766	622.5775756835939	-1245.167114257813	-205.1968536376954	653.4318237304689	-1237.022216796875	-231.668930053711	565.2797241210939	-1229.171875	-152.3525848388672	451.7346191406251	-1185.086303710938	-130.7213592529297	477.8463134765626	-1051.049194335938	-168.4450836181641	306.8937377929688	-1101.81298828125	-231.1411132812501	272.9943847656251	-1155.024536132813	-200.0067596435547	261.7287902832032	-1125.910400390625	-241.0297393798829	205.2514648437501	-1078.702514648438	-354.5338745117188	104.3678054809571	-1105.23291015625	-322.1195983886719	131.4823913574219	-1014.307189941406	-427.0908813476564	100.2881851196289	-1043.616333007813	-216.8081359863282	56.63070297241212	-1020.308898925781	-208.4412841796876	54.43738555908205	-1069.547241210938	-260.4086914062501	37.48098373413087	-1120.8544921875	-446.276580810547	576.4107055664064	-840.152770996094	-413.0617675781251	518.2109375000001	-833.3987426757815	-379.5629577636719	514.5607299804689	-837.1252441406252	-448.8121643066407	443.5254211425782	-850.1639404296877	-475.7069091796876	395.5545349121095	-858.6335449218752	-412.8876342773439	358.2969055175782	-980.4133300781252	-552.5940551757814	321.9083557128907	-895.492858886719	-637.6024169921876	386.4633178710939	-882.9677734375002	-637.5987548828126	342.0942077636719	-897.6724243164065	-676.0811767578126	328.9054260253907	-939.1164550781252	-851.2686767578127	382.1746520996094	-969.7564697265627	-806.1362304687502	348.4044189453126	-1047.861083984375	-845.4329223632815	450.8336486816407	-1027.12646484375	-901.8873291015627	241.6378173828126	-1079.822509765625	-919.7451171875002	235.3894958496094	-1033.3173828125	-948.3417968750002	284.0058288574219	-993.9797973632815	
769	3.84	-58.39781188964845	1556.3017578125	-1088.38671875	-222.8507232666016	1510.101928710938	-1157.716552734375	-239.5814056396485	1513.302734375	-1018.33251953125	-286.3420715332032	1368.931396484375	-1072.40771484375	-426.0773315429689	1074.665161132813	-1059.234130859375	-164.3082885742188	1273.346069335938	-1075.979125976563	-209.3117980957032	1353.48291015625	-1216.9287109375	-72.2009963989258	1224.02587890625	-1339.46875	-37.27020645141602	1255.2158203125	-1325.031494140625	-5.235027313232423	1210.278930664063	-1347.915649414063	53.7515106201172	1209.018676757813	-1344.271728515625	48.32968902587892	1145.087890625	-1298.559692382813	299.3473510742188	1227.566162109375	-1235.346435546875	322.7788391113282	1193.468505859375	-1301.072509765625	393.2608337402345	1246.6796875	-1243.807006835938	-207.455551147461	1361.354125976563	-939.7100830078127	-62.92324066162111	1240.675048828125	-810.2898559570315	-26.33278465270997	1267.848754882813	-824.7537231445315	3.80197024345398	1219.46142578125	-801.8979492187502	48.90669631958009	1209.9306640625	-805.735046386719	39.25921249389649	1152.9677734375	-856.0786743164065	294.0496520996094	1264.614013671875	-948.4476318359377	309.0067749023438	1233.276489257813	-876.5675048828127	369.2636413574219	1298.360595703125	-945.2857055664065	-303.0632019042969	858.3137207031252	-1174.639770507813	-320.8361206054688	850.336853027344	-925.2142333984377	-460.7979736328126	996.8797607421877	-1057.11474609375	-478.5201416015626	970.5188598632815	-1087.057250976563	-477.5728149414064	967.3279418945315	-1029.543090820313	-312.6607971191407	665.0374755859376	-1255.92138671875	-239.7292480468751	622.1714477539064	-1245.060302734375	-205.2726440429688	652.9875488281251	-1236.9560546875	-231.5134429931641	564.8917236328126	-1229.174682617188	-151.986068725586	451.6208496093751	-1185.027954101563	-130.489501953125	477.5625610351564	-1050.962280273438	-168.3526153564453	306.7822265625001	-1101.642333984375	-230.9096069335938	272.9550476074219	-1154.973999023438	-199.9469299316407	261.6151428222657	-1125.754028320313	-240.9528198242188	205.2098541259766	-1078.623413085938	-354.5837707519532	104.3720779418946	-1105.202270507813	-322.1178588867188	131.4779815673828	-1014.29443359375	-427.0921020507814	100.2623138427735	-1043.614135742188	-216.8072204589844	56.62839889526369	-1020.298828125	-208.3890380859376	54.37800598144533	-1069.541259765625	-260.3909301757813	37.44991683959962	-1120.675048828125	-446.3503723144532	575.0811157226564	-840.2440185546877	-412.6667480468751	517.1246948242189	-833.8022460937502	-379.1880493164063	513.4700317382814	-837.457214355469	-448.4531555175782	442.3544006347657	-850.403259277344	-475.4227600097657	394.2645874023439	-858.9578247070315	-412.3077392578126	357.4508056640626	-980.9326171875002	-552.6929931640626	321.0210266113282	-895.6677856445315	-637.2015991210939	385.8277587890626	-883.2097778320315	-637.4723510742189	341.5811767578126	-897.8765869140627	-676.0317993164064	328.5739440917969	-939.3933105468752	-850.968444824219	382.4257507324219	-969.8432617187502	-806.0081176757815	348.7780456542969	-1048.064697265625	-845.1650390625002	451.1848754882814	-1026.961059570313	-901.630554199219	242.0453643798829	-1079.974243164063	-919.7283325195315	235.6456756591797	-1033.799072265625	-948.263122558594	284.4719543457032	-994.2605590820315	
770	3.845	-57.91370010375978	1554.954223632813	-1088.399536132813	-222.2635345458985	1508.640747070313	-1157.782836914063	-239.1330108642579	1512.079711914063	-1018.238037109375	-285.9776306152344	1367.901489257813	-1072.38330078125	-426.081512451172	1073.749145507813	-1059.080444335938	-163.9290618896485	1272.03662109375	-1075.95703125	-208.7672576904297	1352.412109375	-1216.857055664063	-71.9067840576172	1222.876586914063	-1339.37744140625	-36.99260711669923	1253.828002929688	-1325.097778320313	-4.425848007202149	1208.816284179688	-1347.961181640625	54.04831314086915	1207.629272460938	-1344.438720703125	48.5884246826172	1143.85498046875	-1298.115844726563	299.8306884765626	1226.388427734375	-1235.62158203125	323.1534118652344	1192.26806640625	-1301.179077148438	393.5734863281251	1245.534301757813	-1243.933959960938	-207.0671844482422	1360.20654296875	-939.769470214844	-62.47060394287111	1239.50830078125	-810.324890136719	-25.58359909057618	1266.6259765625	-824.7818603515627	4.284445762634278	1218.1220703125	-801.9805908203127	49.35749435424806	1208.895874023438	-805.6106567382815	39.89093017578126	1151.525268554688	-856.1879882812502	294.3801574707032	1263.176025390625	-948.2915649414065	309.4912414550782	1232.1806640625	-876.4327392578127	369.7778015136719	1297.065673828125	-945.2645263671877	-302.7748107910157	857.4043579101565	-1174.923095703125	-320.7801818847657	849.3352050781252	-925.1887817382815	-460.4538574218751	995.8062744140627	-1057.005004882813	-477.0995483398439	969.2669677734377	-1087.198120117188	-477.7098083496095	966.3092041015627	-1029.390869140625	-312.8494567871094	664.3387451171876	-1255.960571289063	-239.7577056884766	621.7748413085939	-1244.909790039063	-205.3339538574219	652.5679931640626	-1236.9169921875	-231.3892974853516	564.4732055664064	-1229.107788085938	-151.3635864257813	451.3342285156251	-1184.939208984375	-130.2857360839844	477.4757385253907	-1050.938354492188	-167.796630859375	306.5150756835938	-1101.682861328125	-230.6421966552735	272.8188171386719	-1154.850952148438	-199.7678527832032	261.3917541503907	-1125.609741210938	-240.8884429931641	205.1796569824219	-1078.573974609375	-354.5429077148438	104.4040756225586	-1105.17724609375	-322.1066589355469	131.4813537597657	-1014.296997070313	-427.0816040039064	100.2810897827149	-1043.609741210938	-216.7871704101563	56.64231872558595	-1020.308654785156	-208.4024810791016	54.40868759155275	-1069.54638671875	-260.0013427734376	37.43639373779298	-1120.761352539063	-446.1716613769532	574.0103759765626	-840.5247802734377	-412.466766357422	515.9008178710939	-834.0733032226565	-379.0920104980469	512.3007202148439	-837.6965942382815	-448.4110412597657	441.2994079589845	-850.599304199219	-475.2242736816407	393.4478454589845	-859.2628173828127	-412.5262145996095	356.1997375488282	-981.4490966796877	-552.3424072265626	320.1053466796876	-896.3325805664065	-636.7534179687501	385.2151489257814	-883.3338012695315	-637.2913208007814	341.0850830078126	-898.0881347656252	-675.9694213867189	328.2107849121094	-939.7208251953127	-850.7580566406252	382.6469726562501	-969.8607177734377	-805.8684692382815	349.0433349609376	-1048.253295898438	-844.6809692382815	451.6580810546876	-1026.77880859375	-901.7400512695315	242.6372833251954	-1080.451538085938	-919.6990356445315	235.9602508544922	-1034.264892578125	-948.2342529296877	285.0491638183594	-994.5852050781252	
771	3.85	-57.59730148315431	1553.625854492188	-1088.327270507813	-221.7937469482422	1507.436279296875	-1157.664672851563	-238.5812072753907	1510.774780273438	-1018.198303222656	-285.4346923828126	1366.54541015625	-1072.2216796875	-425.8030700683595	1072.692993164063	-1058.914428710938	-163.7874603271485	1270.66943359375	-1076.13427734375	-208.3457794189454	1351.048950195313	-1216.832641601563	-71.51654052734376	1221.525268554688	-1339.410400390625	-36.7256202697754	1252.65771484375	-1325.1181640625	-4.728614807128907	1207.788208007813	-1348.02978515625	54.38518524169923	1206.35595703125	-1344.3935546875	49.02757263183595	1142.520751953125	-1298.230102539063	299.8956909179688	1225.3076171875	-1235.760375976563	323.2478332519532	1191.1025390625	-1301.293823242188	394.3382568359376	1244.696899414063	-1244.293334960938	-206.6343536376954	1358.756958007813	-939.6455078125002	-62.01129150390626	1238.161743164063	-810.2766723632815	-25.07392692565919	1265.292602539063	-824.7583618164065	4.627238273620606	1216.98828125	-801.9624023437502	49.80998611450197	1207.490234375	-805.6016235351565	40.48086166381837	1150.379516601563	-856.1625976562502	294.9932861328126	1262.05615234375	-948.3584594726565	309.9154968261719	1230.908813476563	-876.3716430664065	370.2190551757813	1296.0966796875	-945.1397094726565	-303.1735534667969	856.4065551757815	-1174.96337890625	-320.9048461914063	847.9296875000002	-925.4040527343752	-460.5959472656251	994.896911621094	-1056.851684570313	-477.5857238769532	968.5039062500002	-1086.985595703125	-477.9165649414064	965.3032226562502	-1029.1767578125	-313.0169677734376	663.6757812500001	-1255.988891601563	-239.7353515625001	621.3742675781251	-1244.89990234375	-205.4659423828126	652.2080078125001	-1236.903686523438	-231.1684722900391	563.8981933593751	-1229.082275390625	-150.5193023681641	451.1025695800782	-1184.8369140625	-129.937728881836	477.4004211425782	-1050.83349609375	-167.5911407470703	306.3116149902344	-1101.63671875	-230.3102416992188	272.6829528808594	-1154.817626953125	-199.6903686523438	261.1195068359376	-1125.574462890625	-240.8098602294922	205.1095123291016	-1078.488525390625	-354.4669189453126	104.3858337402344	-1105.144165039063	-322.0809936523438	131.4781799316407	-1014.274841308594	-427.108367919922	100.3132705688477	-1043.593017578125	-216.7665710449219	56.5846405029297	-1020.296020507813	-208.3611755371094	54.39120483398439	-1069.49609375	-260.0370178222657	37.43780899047852	-1120.778930664063	-445.8798217773439	572.7968139648439	-840.8001708984377	-412.1502990722657	514.6976928710939	-834.2980957031252	-378.7838439941407	511.1599121093751	-838.2299804687502	-448.1439514160157	439.9598693847657	-850.9379882812502	-475.1131896972657	392.0291137695314	-859.243591308594	-412.1228332519532	355.2282714843751	-981.8391113281252	-552.2575073242189	319.3232727050782	-896.6824951171877	-636.1264038085939	384.5819702148439	-883.549011230469	-637.1310424804689	340.5342712402344	-898.4023437500002	-675.7085571289064	327.8729248046876	-940.0251464843752	-850.5626220703127	382.8927001953126	-969.8803710937502	-805.7151489257815	349.4273376464844	-1048.388793945313	-844.2995605468752	452.1090698242189	-1026.639526367188	-901.5183105468752	243.7005004882813	-1080.824951171875	-919.8045654296877	237.0947570800782	-1034.834716796875	-948.1818847656252	285.5561523437501	-994.8875732421877	
